<?xml version="1.0" encoding="utf-8"?>
<!-- Generator: Adobe Illustrator 28.0.0, SVG Export Plug-In . SVG Version: 6.00 Build 0)  -->
<svg version="1.1" id="Calque_1" xmlns="http://www.w3.org/2000/svg" xmlns:xlink="http://www.w3.org/1999/xlink" x="0px" y="0px"
	 viewBox="0 0 847.9 122" style="enable-background:new 0 0 847.9 122;" xml:space="preserve">
<style type="text/css">
	.st0{fill:#020203;}
	.st1{fill:#B4B4B4;}
	.st2{fill:#F2F2F2;}
</style>
<g>
	<path class="st0" d="M547.1,17.4c0-5.6,3.5-9.5,8.8-9.5c4.1,0,7.3,2.5,7.9,6.2h-2.6c-0.7-2.4-2.7-3.8-5.4-3.8c-3.7,0-6.1,2.8-6.1,7
		c0,4.3,2.4,7.1,6.1,7.1c2.7,0,4.8-1.4,5.5-3.7h2.6c-0.8,3.6-4,6.1-8.1,6.1C550.6,26.8,547.1,23.1,547.1,17.4z"/>
	<path class="st0" d="M566.9,26.5V8.3H578v2.3h-8.6v5.7h7.8v2.2h-7.8v5.8h8.6v2.3H566.9z"/>
	<path class="st0" d="M581.6,26.5V8.3h2.5l9.3,14.1V8.3h2.5v18.3h-2.5l-9.3-14.1v14.1H581.6z"/>
	<path class="st0" d="M598.3,8.3h13.4v2.3h-5.5v16h-2.5v-16h-5.5V8.3z"/>
	<path class="st0" d="M614.2,26.5V8.3h6.9c3.9,0,6.2,2.1,6.2,5.5c0,2.5-1.3,4.3-3.5,5.1l3.7,7.7h-2.7l-3.4-7.2h-4.7v7.2H614.2z
		 M616.7,17.1h4.4c2.3,0,3.6-1.2,3.6-3.3c0-2.1-1.4-3.3-3.6-3.3h-4.4V17.1z"/>
	<path class="st0" d="M630.7,26.5V8.3h11.1v2.3h-8.6v5.7h7.8v2.2h-7.8v5.8h8.6v2.3H630.7z"/>
	<path class="st0" d="M659.9,26.8c-5.1,0-8.7-3.9-8.7-9.5c0-5.5,3.6-9.5,8.7-9.5c5.2,0,8.8,3.9,8.8,9.5
		C668.6,22.9,665,26.8,659.9,26.8z M659.9,10.3c-3.7,0-6.1,2.8-6.1,7s2.4,7.1,6.1,7.1s6.2-2.9,6.2-7.1
		C666.1,13.1,663.6,10.3,659.9,10.3z"/>
	<path class="st0" d="M674.3,20v6.5h-2.5V8.3h7.1c3.6,0,5.9,2.4,5.9,5.9c0,3.4-2.3,5.9-5.9,5.9H674.3z M674.3,10.5v7.3h4.1
		c2.4,0,3.8-1.4,3.8-3.7c0-2.3-1.4-3.6-3.7-3.6H674.3z"/>
	<path class="st0" d="M687.5,26.5V8.3h11.1v2.3H690v5.7h7.8v2.2H690v5.8h8.6v2.3H687.5z M693.9,6.9h-1.8l1.7-3.4h2.3L693.9,6.9z"/>
	<path class="st0" d="M702.2,26.5V8.3h6.9c3.9,0,6.2,2.1,6.2,5.5c0,2.5-1.3,4.3-3.5,5.1l3.7,7.7h-2.7l-3.4-7.2h-4.7v7.2H702.2z
		 M704.7,17.1h4.4c2.3,0,3.6-1.2,3.6-3.3c0-2.1-1.4-3.3-3.6-3.3h-4.4V17.1z"/>
	<path class="st0" d="M716.9,26.5l6.6-18.3h2.7l6.7,18.3h-2.6l-1.6-4.5H721l-1.6,4.5H716.9z M721.8,19.8h6.2l-2.8-7.6
		c-0.1-0.4-0.3-0.8-0.3-1.1c-0.1,0.3-0.2,0.7-0.3,1.1L721.8,19.8z"/>
	<path class="st0" d="M731.9,8.3h13.4v2.3h-5.5v16h-2.5v-16h-5.5V8.3z"/>
	<path class="st0" d="M750.3,26.5h-2.5V8.3h2.5V26.5z"/>
	<path class="st0" d="M762.2,26.8c-5.1,0-8.7-3.9-8.7-9.5c0-5.5,3.6-9.5,8.7-9.5c5.2,0,8.8,3.9,8.8,9.5
		C771,22.9,767.4,26.8,762.2,26.8z M762.2,10.3c-3.7,0-6.1,2.8-6.1,7s2.4,7.1,6.1,7.1s6.2-2.9,6.2-7.1
		C768.4,13.1,765.9,10.3,762.2,10.3z"/>
	<path class="st0" d="M774.1,26.5V8.3h2.5l9.3,14.1V8.3h2.5v18.3h-2.5l-9.3-14.1v14.1H774.1z"/>
	<path class="st0" d="M792.6,26.5V8.3h2.5l9.3,14.1V8.3h2.5v18.3h-2.5l-9.3-14.1v14.1H792.6z"/>
	<path class="st0" d="M811.1,26.5V8.3h11.1v2.3h-8.6v5.7h7.8v2.2h-7.8v5.8h8.6v2.3H811.1z"/>
	<path class="st0" d="M828.2,24.2h8v2.3h-10.5V8.3h2.5V24.2z"/>
	<path class="st0" d="M556.8,55V37h5c5.4,0,9,3.6,9,9s-3.6,9-9,9H556.8z M558,38.1v15.7h3.8c4.7,0,7.8-3.1,7.8-7.9
		c0-4.8-3-7.9-7.8-7.9H558z"/>
	<path class="st0" d="M574.2,55V37h10.5v1.1h-9.3v7.3h8.5v1.1h-8.5v7.3h9.3V55H574.2z"/>
	<path class="st0" d="M595.4,55V36.7h2.4l6.3,15.4l6.3-15.4h2.5V55h-2.4v-7.2c0-3.4,0-4.6,0.2-5.9L605.3,55H603l-5.3-13.1
		c0.1,0.9,0.2,2.8,0.2,5.3V55H595.4z"/>
	<path class="st0" d="M617.1,55V36.7h11.1V39h-8.6v5.7h7.8v2.2h-7.8v5.8h8.6V55H617.1z M623.5,35.3h-1.8l1.7-3.4h2.3L623.5,35.3z"/>
	<path class="st0" d="M630,36.7h13.4V39H638v16h-2.5V39H630V36.7z"/>
	<path class="st0" d="M645.9,55V36.7H657V39h-8.6v5.7h7.8v2.2h-7.8v5.8h8.6V55H645.9z M652.3,35.3h-1.8l1.7-3.4h2.3L652.3,35.3z"/>
	<path class="st0" d="M668.2,55.3c-5.1,0-8.7-3.9-8.7-9.5c0-5.5,3.6-9.5,8.7-9.5c5.2,0,8.8,3.9,8.8,9.5S673.4,55.3,668.2,55.3z
		 M668.2,38.8c-3.7,0-6.1,2.8-6.1,7s2.4,7.1,6.1,7.1s6.2-2.9,6.2-7.1C674.4,41.6,671.9,38.8,668.2,38.8z"/>
	<path class="st0" d="M680.1,55V36.7h6.9c3.9,0,6.2,2.1,6.2,5.5c0,2.5-1.3,4.3-3.5,5.1l3.7,7.7h-2.7l-3.4-7.2h-4.7V55H680.1z
		 M682.6,45.5h4.4c2.3,0,3.6-1.2,3.6-3.3c0-2.1-1.4-3.3-3.6-3.3h-4.4V45.5z"/>
	<path class="st0" d="M704.2,55.3c-5.1,0-8.7-3.9-8.7-9.5c0-5.5,3.6-9.5,8.7-9.5c5.2,0,8.8,3.9,8.8,9.5S709.3,55.3,704.2,55.3z
		 M704.2,38.8c-3.7,0-6.1,2.8-6.1,7s2.4,7.1,6.1,7.1s6.2-2.9,6.2-7.1C710.4,41.6,707.9,38.8,704.2,38.8z"/>
	<path class="st0" d="M718.6,52.7h8V55h-10.5V36.7h2.5V52.7z"/>
	<path class="st0" d="M736,55.3c-5.1,0-8.7-3.9-8.7-9.5c0-5.5,3.6-9.5,8.7-9.5c5.2,0,8.8,3.9,8.8,9.5S741.2,55.3,736,55.3z
		 M736,38.8c-3.7,0-6.1,2.8-6.1,7s2.4,7.1,6.1,7.1s6.2-2.9,6.2-7.1C742.2,41.6,739.7,38.8,736,38.8z"/>
	<path class="st0" d="M749.4,45.9c0,4.4,2.6,7,6.3,7c3.1,0,5.6-1.6,5.6-5.3v-0.5h-6.1v-2.2h8.4V55h-2.1l-0.2-2.5
		c-1,1.6-3.2,2.8-5.9,2.8c-5.2,0-8.7-3.7-8.7-9.4c0-5.6,3.6-9.5,8.9-9.5c4,0,7.1,2.3,7.7,5.8h-2.6c-0.7-2.3-2.7-3.5-5.1-3.5
		C751.8,38.7,749.4,41.6,749.4,45.9z"/>
	<path class="st0" d="M769.7,55h-2.5V36.7h2.5V55z"/>
	<path class="st0" d="M773.9,55V36.7H785V39h-8.6v5.7h7.8v2.2h-7.8v5.8h8.6V55H773.9z"/>
	<path class="st0" d="M565.3,83.4V65.4h5c5.4,0,9,3.6,9,9c0,5.4-3.6,9-9,9H565.3z M566.5,66.6v15.7h3.8c4.7,0,7.8-3.1,7.8-7.9
		c0-4.8-3-7.9-7.8-7.9H566.5z"/>
	<path class="st0" d="M582.7,83.4V65.4h10.5v1.1h-9.3v7.3h8.5v1.1h-8.5v7.3h9.3v1.1H582.7z"/>
	<path class="st0" d="M605.2,82.3h8.5v1.1H604V65.4h1.2V82.3z"/>
	<path class="st0" d="M614.6,71.3h-0.9l-0.4-4.8c0-0.7,0.4-1,0.9-1s0.9,0.3,0.8,1L614.6,71.3z"/>
	<path class="st0" d="M618.1,83.4V65.1h11.1v2.3h-8.6v5.7h7.8v2.2h-7.8v5.8h8.6v2.3H618.1z"/>
	<path class="st0" d="M637.9,64.8c3.5,0,5.7,1.9,5.9,5.1h-2.5c-0.1-1.8-1.4-2.9-3.4-2.9c-2.3,0-3.8,1.2-3.8,3c0,1.5,0.8,2.3,2.5,2.8
		l3,0.7c3,0.7,4.5,2.3,4.5,4.9c0,3.3-2.5,5.4-6.4,5.4c-3.7,0-6.2-1.9-6.3-5.1h2.5c0.1,1.7,1.5,2.9,3.8,2.9c2.4,0,4-1.1,4-3
		c0-1.4-0.8-2.4-2.5-2.8l-3-0.7c-3-0.7-4.5-2.4-4.5-5C631.7,66.9,634.2,64.8,637.9,64.8z"/>
	<path class="st0" d="M649.7,76.9v6.5h-2.5V65.1h7.1c3.6,0,5.9,2.3,5.9,5.9c0,3.4-2.3,5.9-5.9,5.9H649.7z M649.7,67.3v7.3h4.1
		c2.4,0,3.8-1.4,3.8-3.7c0-2.3-1.4-3.6-3.7-3.6H649.7z"/>
	<path class="st0" d="M660.3,83.4l6.6-18.3h2.7l6.7,18.3h-2.6l-1.6-4.5h-7.7l-1.6,4.5H660.3z M665.3,76.7h6.2l-2.8-7.6
		c-0.1-0.4-0.3-0.8-0.3-1.1c-0.1,0.3-0.2,0.7-0.3,1.1L665.3,76.7z"/>
	<path class="st0" d="M676.9,74.3c0-5.6,3.5-9.4,8.8-9.4c4.1,0,7.3,2.5,7.9,6.2H691c-0.7-2.4-2.7-3.8-5.4-3.8c-3.7,0-6.1,2.8-6.1,7
		s2.4,7,6.1,7c2.7,0,4.8-1.4,5.5-3.7h2.6c-0.8,3.6-4,6.1-8.1,6.1C680.4,83.7,676.9,79.9,676.9,74.3z"/>
	<path class="st0" d="M696.7,83.4V65.1h11.1v2.3h-8.6v5.7h7.8v2.2h-7.8v5.8h8.6v2.3H696.7z"/>
	<path class="st0" d="M573.7,111.8V93.9h5c5.4,0,9,3.6,9,9c0,5.4-3.6,9-9,9H573.7z M574.9,95v15.7h3.8c4.7,0,7.8-3.1,7.8-7.9
		c0-4.8-3-7.9-7.8-7.9H574.9z"/>
	<path class="st0" d="M591.1,111.8V93.9h10.5V95h-9.3v7.3h8.5v1.1h-8.5v7.3h9.3v1.1H591.1z"/>
	<path class="st0" d="M610.1,93.6c3.1,0,5.1,1.7,5.5,4.6h-1.3c-0.3-2.2-1.8-3.5-4.2-3.5c-2.8,0-4.6,1.5-4.6,3.7c0,1.7,1,2.9,3.1,3.4
		l3.2,0.8c2.7,0.7,4.1,2.3,4.1,4.6c0,3-2.3,4.9-5.9,4.9c-3.3,0-5.6-1.7-5.9-4.5h1.3c0.1,2,1.9,3.4,4.6,3.4c2.8,0,4.7-1.5,4.7-3.8
		c0-1.8-1-3-3.1-3.5l-3.1-0.8c-2.7-0.7-4.1-2.2-4.1-4.5C604.3,95.5,606.6,93.6,610.1,93.6z"/>
	<path class="st0" d="M624.4,111.8l6.6-18.3h2.7l6.7,18.3h-2.6l-1.6-4.5h-7.7l-1.6,4.5H624.4z M629.3,105.1h6.2l-2.8-7.6
		c-0.1-0.4-0.3-0.8-0.3-1.1c-0.1,0.3-0.2,0.7-0.3,1.1L629.3,105.1z"/>
	<path class="st0" d="M645.3,109.5h8v2.3h-10.5V93.5h2.5V109.5z"/>
	<path class="st0" d="M658.5,105.3v6.5H656V93.5h7.1c3.6,0,5.9,2.3,5.9,5.9c0,3.4-2.3,5.9-5.9,5.9H658.5z M658.5,95.8v7.3h4.1
		c2.4,0,3.8-1.4,3.8-3.7c0-2.3-1.4-3.6-3.7-3.6H658.5z"/>
	<path class="st0" d="M671.8,111.8V93.5h11.1v2.3h-8.6v5.7h7.8v2.2h-7.8v5.8h8.6v2.3H671.8z"/>
	<path class="st0" d="M691.6,93.2c3.5,0,5.7,1.9,5.9,5.1h-2.5c-0.1-1.8-1.4-2.9-3.4-2.9c-2.3,0-3.8,1.2-3.8,3c0,1.5,0.8,2.3,2.5,2.8
		l3,0.7c3,0.7,4.5,2.3,4.5,4.9c0,3.3-2.5,5.4-6.4,5.4c-3.7,0-6.2-1.9-6.3-5.1h2.5c0.1,1.7,1.5,2.9,3.8,2.9c2.4,0,4-1.1,4-3
		c0-1.4-0.8-2.3-2.5-2.8l-3-0.7c-3-0.7-4.5-2.4-4.5-5C685.4,95.3,687.9,93.2,691.6,93.2z"/>
</g>
<path class="st0" d="M13.9,72.8V48.6C13.9,21.5,29.7,6.9,55,6.9c24.8,0,38.9,14.6,38.9,38.6v0.7H78V45c0-13.9-7.4-23.8-23.1-23.8
	c-15.8,0-25.1,10.2-25.1,27.1v24.8c0,16.9,9.3,27.1,25.1,27.1c15.7,0,23.1-9.9,23.1-23.8v-2.5h15.8v2.1c0,24-14,38.6-38.9,38.6
	C29.7,114.5,13.9,99.9,13.9,72.8z"/>
<path class="st0" d="M333,9h65.2v14.5h-49.2v29.7v14.5V98h50v14.5H333V9z"/>
<path class="st0" d="M429.3,88.1l-6.8,24.4H406L435.5,9h28.1L493,112.5h-16.4l-6.8-24.4l-4-14.8l-15.1-54.4h-2.4l-15.1,54.4
	L429.3,88.1z"/>
<polygon class="st1" points="153.9,8.3 510.8,73 510.8,44.9 153.9,113.6 "/>
<circle class="st0" cx="510.8" cy="61" r="17.9"/>
<path class="st0" d="M214.9,9h30l22.6,92.9h2.4L292.5,9h30v103.5H307V20.2h-2.4l-22.5,92.3h-26.9l-22.5-92.3h-2.4v92.3h-15.5V9z"/>
<g>
	<path class="st2" d="M153.9,108.5c-26.2,0-47.5-21.3-47.5-47.5c0-26.2,21.3-47.5,47.5-47.5c26.2,0,47.5,21.3,47.5,47.5
		C201.4,87.2,180.1,108.5,153.9,108.5z"/>
	<path class="st0" d="M153.9,20.6c22.3,0,40.4,18.1,40.4,40.4s-18.1,40.4-40.4,40.4S113.5,83.3,113.5,61S131.6,20.6,153.9,20.6
		 M153.9,6.4c-30.1,0-54.6,24.4-54.6,54.6s24.4,54.6,54.6,54.6c30.1,0,54.6-24.4,54.6-54.6S184,6.4,153.9,6.4L153.9,6.4z"/>
</g>
</svg>
